<?xml version="1.0" encoding="UTF-8" standalone="no"?>
<!DOCTYPE svg PUBLIC "-//W3C//DTD SVG 1.1//EN" "http://www.w3.org/Graphics/SVG/1.1/DTD/svg11.dtd">
<svg version="1.1" xmlns="http://www.w3.org/2000/svg" xmlns:xlink="http://www.w3.org/1999/xlink" preserveAspectRatio="xMidYMid meet" viewBox="0 0 37 37" width="37" height="37"><defs><path d="M3.5 25.65C3.5 25.93 3.72 26.15 4 26.15C4.9 26.15 12.13 26.15 13.03 26.15C13.04 26.32 13.07 26.48 13.1 26.64C12.82 26.97 10.63 29.59 10.36 29.91C10.18 30.12 10.2 30.44 10.42 30.62C10.48 30.67 10.55 30.7 10.62 30.72C10.82 30.77 11.83 31.01 13.64 31.44C14.38 33.15 14.79 34.1 14.88 34.29C14.99 34.55 15.28 34.66 15.53 34.55C15.6 34.52 15.67 34.47 15.72 34.41C15.99 34.09 18.18 31.48 18.46 31.15C18.47 31.15 18.49 31.15 18.5 31.15C18.52 31.15 18.53 31.15 18.54 31.15C18.82 31.48 21.01 34.09 21.28 34.41C21.46 34.63 21.78 34.65 21.99 34.48C22.05 34.43 22.09 34.36 22.12 34.29C22.21 34.1 22.62 33.15 23.36 31.44C25.17 31.01 26.18 30.77 26.38 30.72C26.65 30.66 26.81 30.39 26.75 30.12C26.73 30.04 26.7 29.97 26.65 29.91C26.37 29.59 24.18 26.97 23.9 26.64C23.93 26.48 23.96 26.32 23.97 26.15C24.87 26.15 32.1 26.15 33 26.15C33.28 26.15 33.5 25.93 33.5 25.65C33.5 23.65 33.5 7.65 33.5 5.65C33.5 5.38 33.28 5.15 33 5.15C27.2 5.15 6.9 5.15 4 5.15C3.72 5.15 3.5 5.38 3.5 5.65C3.5 7.65 3.5 23.65 3.5 25.65ZM11.64 29.94C12.72 28.65 13.32 27.94 13.44 27.8C13.45 27.82 13.46 27.84 13.47 27.86C13.53 28.01 13.6 28.15 13.68 28.3C13.71 28.36 13.75 28.41 13.78 28.47C13.85 28.59 13.92 28.7 14 28.81C14.05 28.88 14.11 28.96 14.17 29.03C14.23 29.12 14.3 29.2 14.38 29.28C14.45 29.36 14.53 29.45 14.62 29.54C14.68 29.6 14.74 29.66 14.81 29.72C14.86 29.77 14.91 29.82 14.96 29.87C15.02 29.91 15.07 29.95 15.13 29.99C15.15 30.01 15.17 30.03 15.2 30.05C15.24 30.08 15.29 30.11 15.34 30.14C15.41 30.19 15.48 30.25 15.55 30.29C15.7 30.38 15.84 30.47 15.99 30.54C16.05 30.57 16.11 30.6 16.16 30.63C16.3 30.69 16.43 30.75 16.57 30.8C16.61 30.81 16.64 30.83 16.68 30.84C16.87 30.91 17.07 30.96 17.26 31.01C17.26 31.01 17.26 31.01 17.27 31.01C17.09 31.22 15.65 32.94 15.47 33.15C14.86 31.75 14.53 30.97 14.46 30.82C14.4 30.67 14.27 30.57 14.12 30.53C13.95 30.49 13.13 30.29 11.64 29.94ZM18.5 30.15C18.42 30.15 18.34 30.14 18.26 30.14C18.26 30.14 18.26 30.14 18.25 30.14C18.02 30.12 17.79 30.09 17.56 30.05C17.56 30.05 17.52 30.04 17.52 30.04C17.43 30.02 17.34 29.99 17.25 29.97C17.22 29.96 17.18 29.95 17.14 29.94C17.08 29.92 17.02 29.9 16.96 29.87C16.9 29.85 16.84 29.83 16.78 29.81C16.74 29.79 16.71 29.77 16.67 29.76C16.59 29.72 16.51 29.68 16.43 29.64C16.42 29.64 16.39 29.62 16.39 29.62C16.18 29.51 15.99 29.38 15.8 29.24C15.69 29.16 15.6 29.08 15.5 28.99C15.39 28.89 15.29 28.79 15.19 28.68C15.15 28.63 15.1 28.59 15.06 28.55C14.92 28.38 14.8 28.21 14.68 28.03C14.67 28 14.65 27.97 14.63 27.94C14.53 27.77 14.43 27.58 14.35 27.39C14.35 27.37 14.34 27.36 14.33 27.34C14.24 27.12 14.17 26.9 14.12 26.67C14.12 26.66 14.11 26.65 14.11 26.64C14.04 26.32 14 25.98 14 25.65C14 23.17 16.01 21.15 18.5 21.15C20.98 21.15 23 23.16 23 25.65C23 25.98 22.96 26.32 22.89 26.65C22.89 26.66 22.88 26.66 22.88 26.67C22.83 26.9 22.75 27.13 22.67 27.34C22.66 27.36 22.65 27.38 22.64 27.39C22.56 27.58 22.47 27.77 22.36 27.94C22.35 27.97 22.33 28 22.31 28.03C22.2 28.21 22.07 28.39 21.93 28.55C21.9 28.6 21.85 28.64 21.81 28.68C21.71 28.79 21.6 28.9 21.49 29C21.4 29.08 21.3 29.17 21.2 29.24C21.09 29.32 21 29.39 20.9 29.45C20.9 29.45 20.9 29.45 20.9 29.45C20.8 29.51 20.71 29.56 20.62 29.61C20.6 29.62 20.58 29.63 20.56 29.64C20.49 29.68 20.41 29.72 20.33 29.75C20.29 29.77 20.25 29.79 20.21 29.81C20.16 29.83 20.1 29.85 20.04 29.87C19.99 29.89 19.92 29.92 19.85 29.94C19.82 29.95 19.78 29.96 19.75 29.97C19.66 29.99 19.57 30.02 19.48 30.04C19.48 30.04 19.46 30.04 19.44 30.05C19.13 30.1 18.9 30.13 18.74 30.14C18.74 30.14 18.74 30.14 18.74 30.14C18.66 30.14 18.58 30.15 18.5 30.15ZM21.53 33.15C21.35 32.94 19.91 31.22 19.73 31.01C19.74 31.01 19.74 31.01 19.74 31.01C19.93 30.97 20.13 30.91 20.32 30.84C20.35 30.83 20.39 30.82 20.43 30.8C20.57 30.75 20.71 30.69 20.84 30.63C20.9 30.6 20.95 30.58 21 30.55C21.15 30.47 21.3 30.39 21.45 30.29C21.52 30.25 21.58 30.2 21.65 30.15C21.7 30.12 21.75 30.09 21.8 30.05C21.83 30.03 21.85 30.01 21.88 29.99C21.93 29.95 21.99 29.91 22.04 29.87C22.09 29.82 22.14 29.77 22.19 29.72C22.26 29.66 22.32 29.6 22.39 29.54C22.47 29.46 22.55 29.37 22.63 29.28C22.7 29.2 22.77 29.12 22.83 29.03C22.89 28.96 22.95 28.88 23 28.81C23.08 28.7 23.15 28.59 23.22 28.47C23.25 28.42 23.29 28.36 23.32 28.3C23.4 28.16 23.47 28.01 23.53 27.87C23.54 27.84 23.55 27.82 23.56 27.8C23.68 27.94 24.28 28.65 25.36 29.94C23.87 30.29 23.05 30.49 22.88 30.53C22.73 30.56 22.6 30.67 22.54 30.82C22.47 30.97 22.14 31.75 21.53 33.15ZM13.02 25.15C12.46 25.15 9.61 25.15 4.5 25.15C4.5 23.88 4.5 17.55 4.5 6.15C7.3 6.15 29.7 6.15 32.5 6.15C32.5 17.55 32.5 23.88 32.5 25.15C27.38 25.15 24.54 25.15 23.97 25.15C23.7 22.13 21.03 19.9 18.01 20.17C15.36 20.41 13.26 22.5 13.02 25.15Z" id="chn5H9Sla"></path><path d="M3.5 25.65C3.5 25.93 3.72 26.15 4 26.15C4.9 26.15 12.13 26.15 13.03 26.15C13.04 26.32 13.07 26.48 13.1 26.64C12.82 26.97 10.63 29.59 10.36 29.91C10.18 30.12 10.2 30.44 10.42 30.62C10.48 30.67 10.55 30.7 10.62 30.72C10.82 30.77 11.83 31.01 13.64 31.44C14.38 33.15 14.79 34.1 14.88 34.29C14.99 34.55 15.28 34.66 15.53 34.55C15.6 34.52 15.67 34.47 15.72 34.41C15.99 34.09 18.18 31.48 18.46 31.15C18.47 31.15 18.49 31.15 18.5 31.15C18.52 31.15 18.53 31.15 18.54 31.15C18.82 31.48 21.01 34.09 21.28 34.41C21.46 34.63 21.78 34.65 21.99 34.48C22.05 34.43 22.09 34.36 22.12 34.29C22.21 34.1 22.62 33.15 23.36 31.44C25.17 31.01 26.18 30.77 26.38 30.72C26.65 30.66 26.81 30.39 26.75 30.12C26.73 30.04 26.7 29.97 26.65 29.91C26.37 29.59 24.18 26.97 23.9 26.64C23.93 26.48 23.96 26.32 23.97 26.15C24.87 26.15 32.1 26.15 33 26.15C33.28 26.15 33.5 25.93 33.5 25.65C33.5 23.65 33.5 7.65 33.5 5.65C33.5 5.38 33.28 5.15 33 5.15C27.2 5.15 6.9 5.15 4 5.15C3.72 5.15 3.5 5.38 3.5 5.65C3.5 7.65 3.5 23.65 3.5 25.65ZM11.64 29.94C12.72 28.65 13.32 27.94 13.44 27.8C13.45 27.82 13.46 27.84 13.47 27.86C13.53 28.01 13.6 28.15 13.68 28.3C13.71 28.36 13.75 28.41 13.78 28.47C13.85 28.59 13.92 28.7 14 28.81C14.05 28.88 14.11 28.96 14.17 29.03C14.23 29.12 14.3 29.2 14.38 29.28C14.45 29.36 14.53 29.45 14.62 29.54C14.68 29.6 14.74 29.66 14.81 29.72C14.86 29.77 14.91 29.82 14.96 29.87C15.02 29.91 15.07 29.95 15.13 29.99C15.15 30.01 15.17 30.03 15.2 30.05C15.24 30.08 15.29 30.11 15.34 30.14C15.41 30.19 15.48 30.25 15.55 30.29C15.7 30.38 15.84 30.47 15.99 30.54C16.05 30.57 16.11 30.6 16.16 30.63C16.3 30.69 16.43 30.75 16.57 30.8C16.61 30.81 16.64 30.83 16.68 30.84C16.87 30.91 17.07 30.96 17.26 31.01C17.26 31.01 17.26 31.01 17.27 31.01C17.09 31.22 15.65 32.94 15.47 33.15C14.86 31.75 14.53 30.97 14.46 30.82C14.4 30.67 14.27 30.57 14.12 30.53C13.95 30.49 13.13 30.29 11.64 29.94ZM18.5 30.15C18.42 30.15 18.34 30.14 18.26 30.14C18.26 30.14 18.26 30.14 18.25 30.14C18.02 30.12 17.79 30.09 17.56 30.05C17.56 30.05 17.52 30.04 17.52 30.04C17.43 30.02 17.34 29.99 17.25 29.97C17.22 29.96 17.18 29.95 17.14 29.94C17.08 29.92 17.02 29.9 16.96 29.87C16.9 29.85 16.84 29.83 16.78 29.81C16.74 29.79 16.71 29.77 16.67 29.76C16.59 29.72 16.51 29.68 16.43 29.64C16.42 29.64 16.39 29.62 16.39 29.62C16.18 29.51 15.99 29.38 15.8 29.24C15.69 29.16 15.6 29.08 15.5 28.99C15.39 28.89 15.29 28.79 15.19 28.68C15.15 28.63 15.1 28.59 15.06 28.55C14.92 28.38 14.8 28.21 14.68 28.03C14.67 28 14.65 27.97 14.63 27.94C14.53 27.77 14.43 27.58 14.35 27.39C14.35 27.37 14.34 27.36 14.33 27.34C14.24 27.12 14.17 26.9 14.12 26.67C14.12 26.66 14.11 26.65 14.11 26.64C14.04 26.32 14 25.98 14 25.65C14 23.17 16.01 21.15 18.5 21.15C20.98 21.15 23 23.16 23 25.65C23 25.98 22.96 26.32 22.89 26.65C22.89 26.66 22.88 26.66 22.88 26.67C22.83 26.9 22.75 27.13 22.67 27.34C22.66 27.36 22.65 27.38 22.64 27.39C22.56 27.58 22.47 27.77 22.36 27.94C22.35 27.97 22.33 28 22.31 28.03C22.2 28.21 22.07 28.39 21.93 28.55C21.9 28.6 21.85 28.64 21.81 28.68C21.71 28.79 21.6 28.9 21.49 29C21.4 29.08 21.3 29.17 21.2 29.24C21.09 29.32 21 29.39 20.9 29.45C20.9 29.45 20.9 29.45 20.9 29.45C20.8 29.51 20.71 29.56 20.62 29.61C20.6 29.62 20.58 29.63 20.56 29.64C20.49 29.68 20.41 29.72 20.33 29.75C20.29 29.77 20.25 29.79 20.21 29.81C20.16 29.83 20.1 29.85 20.04 29.87C19.99 29.89 19.92 29.92 19.85 29.94C19.82 29.95 19.78 29.96 19.75 29.97C19.66 29.99 19.57 30.02 19.48 30.04C19.48 30.04 19.46 30.04 19.44 30.05C19.13 30.1 18.9 30.13 18.74 30.14C18.74 30.14 18.74 30.14 18.74 30.14C18.66 30.14 18.58 30.15 18.5 30.15ZM21.53 33.15C21.35 32.94 19.91 31.22 19.73 31.01C19.74 31.01 19.74 31.01 19.74 31.01C19.93 30.97 20.13 30.91 20.32 30.84C20.35 30.83 20.39 30.82 20.43 30.8C20.57 30.75 20.71 30.69 20.84 30.63C20.9 30.6 20.95 30.58 21 30.55C21.15 30.47 21.3 30.39 21.45 30.29C21.52 30.25 21.58 30.2 21.65 30.15C21.7 30.12 21.75 30.09 21.8 30.05C21.83 30.03 21.85 30.01 21.88 29.99C21.93 29.95 21.99 29.91 22.04 29.87C22.09 29.82 22.14 29.77 22.19 29.72C22.26 29.66 22.32 29.6 22.39 29.54C22.47 29.46 22.55 29.37 22.63 29.28C22.7 29.2 22.77 29.12 22.83 29.03C22.89 28.96 22.95 28.88 23 28.81C23.08 28.7 23.15 28.59 23.22 28.47C23.25 28.42 23.29 28.36 23.32 28.3C23.4 28.16 23.47 28.01 23.53 27.87C23.54 27.84 23.55 27.82 23.56 27.8C23.68 27.94 24.28 28.65 25.36 29.94C23.87 30.29 23.05 30.49 22.88 30.53C22.73 30.56 22.6 30.67 22.54 30.82C22.47 30.97 22.14 31.75 21.53 33.15ZM13.02 25.15C12.46 25.15 9.61 25.15 4.5 25.15C4.5 23.88 4.5 17.55 4.5 6.15C7.3 6.15 29.7 6.15 32.5 6.15C32.5 17.55 32.5 23.88 32.5 25.15C27.38 25.15 24.54 25.15 23.97 25.15C23.7 22.13 21.03 19.9 18.01 20.17C15.36 20.41 13.26 22.5 13.02 25.15Z" id="b4f2wLUjBP"></path><path d="M3.5 25.65C3.5 25.93 3.72 26.15 4 26.15C4.9 26.15 12.13 26.15 13.03 26.15C13.04 26.32 13.07 26.48 13.1 26.64C12.82 26.97 10.63 29.59 10.36 29.91C10.18 30.12 10.2 30.44 10.42 30.62C10.48 30.67 10.55 30.7 10.62 30.72C10.82 30.77 11.83 31.01 13.64 31.44C14.38 33.15 14.79 34.1 14.88 34.29C14.99 34.55 15.28 34.66 15.53 34.55C15.6 34.52 15.67 34.47 15.72 34.41C15.99 34.09 18.18 31.48 18.46 31.15C18.47 31.15 18.49 31.15 18.5 31.15C18.52 31.15 18.53 31.15 18.54 31.15C18.82 31.48 21.01 34.09 21.28 34.41C21.46 34.63 21.78 34.65 21.99 34.48C22.05 34.43 22.09 34.36 22.12 34.29C22.21 34.1 22.62 33.15 23.36 31.44C25.17 31.01 26.18 30.77 26.38 30.72C26.65 30.66 26.81 30.39 26.75 30.12C26.73 30.04 26.7 29.97 26.65 29.91C26.37 29.59 24.18 26.97 23.9 26.64C23.93 26.48 23.96 26.32 23.97 26.15C24.87 26.15 32.1 26.15 33 26.15C33.28 26.15 33.5 25.93 33.5 25.65C33.5 23.65 33.5 7.65 33.5 5.65C33.5 5.38 33.28 5.15 33 5.15C27.2 5.15 6.9 5.15 4 5.15C3.72 5.15 3.5 5.38 3.5 5.65C3.5 7.65 3.5 23.65 3.5 25.65ZM11.64 29.94C12.72 28.65 13.32 27.94 13.44 27.8C13.45 27.82 13.46 27.84 13.47 27.86C13.53 28.01 13.6 28.15 13.68 28.3C13.71 28.36 13.75 28.41 13.78 28.47C13.85 28.59 13.92 28.7 14 28.81C14.05 28.88 14.11 28.96 14.17 29.03C14.23 29.12 14.3 29.2 14.38 29.28C14.45 29.36 14.53 29.45 14.62 29.54C14.68 29.6 14.74 29.66 14.81 29.72C14.86 29.77 14.91 29.82 14.96 29.87C15.02 29.91 15.07 29.95 15.13 29.99C15.15 30.01 15.17 30.03 15.2 30.05C15.24 30.08 15.29 30.11 15.34 30.14C15.41 30.19 15.48 30.25 15.55 30.29C15.7 30.38 15.84 30.47 15.99 30.54C16.05 30.57 16.11 30.6 16.16 30.63C16.3 30.69 16.43 30.75 16.57 30.8C16.61 30.81 16.64 30.83 16.68 30.84C16.87 30.91 17.07 30.96 17.26 31.01C17.26 31.01 17.26 31.01 17.27 31.01C17.09 31.22 15.65 32.94 15.47 33.15C14.86 31.75 14.53 30.97 14.46 30.82C14.4 30.67 14.27 30.57 14.12 30.53C13.95 30.49 13.13 30.29 11.64 29.94ZM18.5 30.15C18.42 30.15 18.34 30.14 18.26 30.14C18.26 30.14 18.26 30.14 18.25 30.14C18.02 30.12 17.79 30.09 17.56 30.05C17.56 30.05 17.52 30.04 17.52 30.04C17.43 30.02 17.34 29.99 17.25 29.97C17.22 29.96 17.18 29.95 17.14 29.94C17.08 29.92 17.02 29.9 16.96 29.87C16.9 29.85 16.84 29.83 16.78 29.81C16.74 29.79 16.71 29.77 16.67 29.76C16.59 29.72 16.51 29.68 16.43 29.64C16.42 29.64 16.39 29.62 16.39 29.62C16.18 29.51 15.99 29.38 15.8 29.24C15.69 29.16 15.6 29.08 15.5 28.99C15.39 28.89 15.29 28.79 15.19 28.68C15.15 28.63 15.1 28.59 15.06 28.55C14.92 28.38 14.8 28.21 14.68 28.03C14.67 28 14.65 27.97 14.63 27.94C14.53 27.77 14.43 27.58 14.35 27.39C14.35 27.37 14.34 27.36 14.33 27.34C14.24 27.12 14.17 26.9 14.12 26.67C14.12 26.66 14.11 26.65 14.11 26.64C14.04 26.32 14 25.98 14 25.65C14 23.17 16.01 21.15 18.5 21.15C20.98 21.15 23 23.16 23 25.65C23 25.98 22.96 26.32 22.89 26.65C22.89 26.66 22.88 26.66 22.88 26.67C22.83 26.9 22.75 27.13 22.67 27.34C22.66 27.36 22.65 27.38 22.64 27.39C22.56 27.58 22.47 27.77 22.36 27.94C22.35 27.97 22.33 28 22.31 28.03C22.2 28.21 22.07 28.39 21.93 28.55C21.9 28.6 21.85 28.64 21.81 28.68C21.71 28.79 21.6 28.9 21.49 29C21.4 29.08 21.3 29.17 21.2 29.24C21.09 29.32 21 29.39 20.9 29.45C20.9 29.45 20.9 29.45 20.9 29.45C20.8 29.51 20.71 29.56 20.62 29.61C20.6 29.62 20.58 29.63 20.56 29.64C20.49 29.68 20.41 29.72 20.33 29.75C20.29 29.77 20.25 29.79 20.21 29.81C20.16 29.83 20.1 29.85 20.04 29.87C19.99 29.89 19.92 29.92 19.85 29.94C19.82 29.95 19.78 29.96 19.75 29.97C19.66 29.99 19.57 30.02 19.48 30.04C19.48 30.04 19.46 30.04 19.44 30.05C19.13 30.1 18.9 30.13 18.74 30.14C18.74 30.14 18.74 30.14 18.74 30.14C18.66 30.14 18.58 30.15 18.5 30.15ZM21.53 33.15C21.35 32.94 19.91 31.22 19.73 31.01C19.74 31.01 19.74 31.01 19.74 31.01C19.93 30.97 20.13 30.91 20.32 30.84C20.35 30.83 20.39 30.82 20.43 30.8C20.57 30.75 20.71 30.69 20.84 30.63C20.9 30.6 20.95 30.58 21 30.55C21.15 30.47 21.3 30.39 21.45 30.29C21.52 30.25 21.58 30.2 21.65 30.15C21.7 30.12 21.75 30.09 21.8 30.05C21.83 30.03 21.85 30.01 21.88 29.99C21.93 29.95 21.99 29.91 22.04 29.87C22.09 29.82 22.14 29.77 22.19 29.72C22.26 29.66 22.32 29.6 22.39 29.54C22.47 29.46 22.55 29.37 22.63 29.28C22.7 29.2 22.77 29.12 22.83 29.03C22.89 28.96 22.95 28.88 23 28.81C23.08 28.7 23.15 28.59 23.22 28.47C23.25 28.42 23.29 28.36 23.32 28.3C23.4 28.16 23.47 28.01 23.53 27.87C23.54 27.84 23.55 27.82 23.56 27.8C23.68 27.94 24.28 28.65 25.36 29.94C23.87 30.29 23.05 30.49 22.88 30.53C22.73 30.56 22.6 30.67 22.54 30.82C22.47 30.97 22.14 31.75 21.53 33.15ZM13.02 25.15C12.46 25.15 9.61 25.15 4.5 25.15C4.5 23.88 4.5 17.55 4.5 6.15C7.3 6.15 29.7 6.15 32.5 6.15C32.5 17.55 32.5 23.88 32.5 25.15C27.38 25.15 24.54 25.15 23.97 25.15C23.7 22.13 21.03 19.9 18.01 20.17C15.36 20.41 13.26 22.5 13.02 25.15Z" id="i26cFEHCSQ"></path><path d="M3.5 25.65C3.5 25.93 3.72 26.15 4 26.15C4.9 26.15 12.13 26.15 13.03 26.15C13.04 26.32 13.07 26.48 13.1 26.64C12.82 26.97 10.63 29.59 10.36 29.91C10.18 30.12 10.2 30.44 10.42 30.62C10.48 30.67 10.55 30.7 10.62 30.72C10.82 30.77 11.83 31.01 13.64 31.44C14.38 33.15 14.79 34.1 14.88 34.29C14.99 34.55 15.28 34.66 15.53 34.55C15.6 34.52 15.67 34.47 15.72 34.41C15.99 34.09 18.18 31.48 18.46 31.15C18.47 31.15 18.49 31.15 18.5 31.15C18.52 31.15 18.53 31.15 18.54 31.15C18.82 31.48 21.01 34.09 21.28 34.41C21.46 34.63 21.78 34.65 21.99 34.48C22.05 34.43 22.09 34.36 22.12 34.29C22.21 34.1 22.62 33.15 23.36 31.44C25.17 31.01 26.18 30.77 26.38 30.72C26.65 30.66 26.81 30.39 26.75 30.12C26.73 30.04 26.7 29.97 26.65 29.91C26.37 29.59 24.18 26.97 23.9 26.64C23.93 26.48 23.96 26.32 23.97 26.15C24.87 26.15 32.1 26.15 33 26.15C33.28 26.15 33.5 25.93 33.5 25.65C33.5 23.65 33.5 7.65 33.5 5.65C33.5 5.38 33.28 5.15 33 5.15C27.2 5.15 6.9 5.15 4 5.15C3.72 5.15 3.5 5.38 3.5 5.65C3.5 7.65 3.5 23.65 3.5 25.65ZM11.64 29.94C12.72 28.65 13.32 27.94 13.44 27.8C13.45 27.82 13.46 27.84 13.47 27.86C13.53 28.01 13.6 28.15 13.68 28.3C13.71 28.36 13.75 28.41 13.78 28.47C13.85 28.59 13.92 28.7 14 28.81C14.05 28.88 14.11 28.96 14.17 29.03C14.23 29.12 14.3 29.2 14.38 29.28C14.45 29.36 14.53 29.45 14.62 29.54C14.68 29.6 14.74 29.66 14.81 29.72C14.86 29.77 14.91 29.82 14.96 29.87C15.02 29.91 15.07 29.95 15.13 29.99C15.15 30.01 15.17 30.03 15.2 30.05C15.24 30.08 15.29 30.11 15.34 30.14C15.41 30.19 15.48 30.25 15.55 30.29C15.7 30.38 15.84 30.47 15.99 30.54C16.05 30.57 16.11 30.6 16.16 30.63C16.3 30.69 16.43 30.75 16.57 30.8C16.61 30.81 16.64 30.83 16.68 30.84C16.87 30.91 17.07 30.96 17.26 31.01C17.26 31.01 17.26 31.01 17.27 31.01C17.09 31.22 15.65 32.94 15.47 33.15C14.86 31.75 14.53 30.97 14.46 30.82C14.4 30.67 14.27 30.57 14.12 30.53C13.95 30.49 13.13 30.29 11.64 29.94ZM18.5 30.15C18.42 30.15 18.34 30.14 18.26 30.14C18.26 30.14 18.26 30.14 18.25 30.14C18.02 30.12 17.79 30.09 17.56 30.05C17.56 30.05 17.52 30.04 17.52 30.04C17.43 30.02 17.34 29.99 17.25 29.97C17.22 29.96 17.18 29.95 17.14 29.94C17.08 29.92 17.02 29.9 16.96 29.87C16.9 29.85 16.84 29.83 16.78 29.81C16.74 29.79 16.71 29.77 16.67 29.76C16.59 29.72 16.51 29.68 16.43 29.64C16.42 29.64 16.39 29.62 16.39 29.62C16.18 29.51 15.99 29.38 15.8 29.24C15.69 29.16 15.6 29.08 15.5 28.99C15.39 28.89 15.29 28.79 15.19 28.68C15.15 28.63 15.1 28.59 15.06 28.55C14.92 28.38 14.8 28.21 14.68 28.03C14.67 28 14.65 27.97 14.63 27.94C14.53 27.77 14.43 27.58 14.35 27.39C14.35 27.37 14.34 27.36 14.33 27.34C14.24 27.12 14.17 26.9 14.12 26.67C14.12 26.66 14.11 26.65 14.11 26.64C14.04 26.32 14 25.98 14 25.65C14 23.17 16.01 21.15 18.5 21.15C20.98 21.15 23 23.16 23 25.65C23 25.98 22.96 26.32 22.89 26.65C22.89 26.66 22.88 26.66 22.88 26.67C22.83 26.9 22.75 27.13 22.67 27.34C22.66 27.36 22.65 27.38 22.64 27.39C22.56 27.58 22.47 27.77 22.36 27.94C22.35 27.97 22.33 28 22.31 28.03C22.2 28.21 22.07 28.39 21.93 28.55C21.9 28.6 21.85 28.64 21.81 28.68C21.71 28.79 21.6 28.9 21.49 29C21.4 29.08 21.3 29.17 21.2 29.24C21.09 29.32 21 29.39 20.9 29.45C20.9 29.45 20.9 29.45 20.9 29.45C20.8 29.51 20.71 29.56 20.62 29.61C20.6 29.62 20.58 29.63 20.56 29.64C20.49 29.68 20.41 29.72 20.33 29.75C20.29 29.77 20.25 29.79 20.21 29.81C20.16 29.83 20.1 29.85 20.04 29.87C19.99 29.89 19.92 29.92 19.85 29.94C19.82 29.95 19.78 29.96 19.75 29.97C19.66 29.99 19.57 30.02 19.48 30.04C19.48 30.04 19.46 30.04 19.44 30.05C19.13 30.1 18.9 30.13 18.74 30.14C18.74 30.14 18.74 30.14 18.74 30.14C18.66 30.14 18.58 30.15 18.5 30.15ZM21.53 33.15C21.35 32.94 19.91 31.22 19.73 31.01C19.74 31.01 19.74 31.01 19.74 31.01C19.93 30.97 20.13 30.91 20.32 30.84C20.35 30.83 20.39 30.82 20.43 30.8C20.57 30.75 20.71 30.69 20.84 30.63C20.9 30.6 20.95 30.58 21 30.55C21.15 30.47 21.3 30.39 21.45 30.29C21.52 30.25 21.58 30.2 21.65 30.15C21.7 30.12 21.75 30.09 21.8 30.05C21.83 30.03 21.85 30.01 21.88 29.99C21.93 29.95 21.99 29.91 22.04 29.87C22.09 29.82 22.14 29.77 22.19 29.72C22.26 29.66 22.32 29.6 22.39 29.54C22.47 29.46 22.55 29.37 22.63 29.28C22.7 29.2 22.77 29.12 22.83 29.03C22.89 28.96 22.95 28.88 23 28.81C23.08 28.7 23.15 28.59 23.22 28.47C23.25 28.42 23.29 28.36 23.32 28.3C23.4 28.16 23.47 28.01 23.53 27.87C23.54 27.84 23.55 27.82 23.56 27.8C23.68 27.94 24.28 28.65 25.36 29.94C23.87 30.29 23.05 30.49 22.88 30.53C22.73 30.56 22.6 30.67 22.54 30.82C22.47 30.97 22.14 31.75 21.53 33.15ZM13.02 25.15C12.46 25.15 9.61 25.15 4.5 25.15C4.5 23.88 4.5 17.55 4.5 6.15C7.3 6.15 29.7 6.15 32.5 6.15C32.5 17.55 32.5 23.88 32.5 25.15C27.38 25.15 24.54 25.15 23.97 25.15C23.7 22.13 21.03 19.9 18.01 20.17C15.36 20.41 13.26 22.5 13.02 25.15Z" id="c1DIvcwPyL"></path><path d="M6.5 9.65C6.5 9.55 6.5 9.05 6.5 8.15L8 8.15C8 7.55 8 7.22 8 7.15C6.8 7.15 6.13 7.15 6 7.15C5.67 7.3 5.5 7.47 5.5 7.65C5.5 7.79 5.5 8.45 5.5 9.65C5.57 9.65 5.9 9.65 6.5 9.65Z" id="bRtJ1GHOg"></path><path d="M6.5 9.65C6.5 9.55 6.5 9.05 6.5 8.15L8 8.15C8 7.55 8 7.22 8 7.15C6.8 7.15 6.13 7.15 6 7.15C5.67 7.3 5.5 7.47 5.5 7.65C5.5 7.79 5.5 8.45 5.5 9.65C5.57 9.65 5.9 9.65 6.5 9.65Z" id="cCVqfNNJX"></path><path d="M6.5 9.65C6.5 9.55 6.5 9.05 6.5 8.15L8 8.15C8 7.55 8 7.22 8 7.15C6.8 7.15 6.13 7.15 6 7.15C5.67 7.3 5.5 7.47 5.5 7.65C5.5 7.79 5.5 8.45 5.5 9.65C5.57 9.65 5.9 9.65 6.5 9.65Z" id="kondjMpz4"></path><path d="M6.5 9.65C6.5 9.55 6.5 9.05 6.5 8.15L8 8.15C8 7.55 8 7.22 8 7.15C6.8 7.15 6.13 7.15 6 7.15C5.67 7.3 5.5 7.47 5.5 7.65C5.5 7.79 5.5 8.45 5.5 9.65C5.57 9.65 5.9 9.65 6.5 9.65Z" id="e1TCWsmAJn"></path><path d="M30.5 8.15C30.5 9.05 30.5 9.55 30.5 9.65C31.1 9.65 31.43 9.65 31.5 9.65C31.5 8.45 31.5 7.79 31.5 7.65C31.5 7.38 31.28 7.15 31 7.15C30.73 7.15 30.07 7.15 29 7.15C29 7.28 29 7.62 29 8.15C29.2 8.15 29.7 8.15 30.5 8.15Z" id="chkw2cQJy"></path><path d="M30.5 8.15C30.5 9.05 30.5 9.55 30.5 9.65C31.1 9.65 31.43 9.65 31.5 9.65C31.5 8.45 31.5 7.79 31.5 7.65C31.5 7.38 31.28 7.15 31 7.15C30.73 7.15 30.07 7.15 29 7.15C29 7.28 29 7.62 29 8.15C29.2 8.15 29.7 8.15 30.5 8.15Z" id="h5UTU2YUA"></path><path d="M30.5 8.15C30.5 9.05 30.5 9.55 30.5 9.65C31.1 9.65 31.43 9.65 31.5 9.65C31.5 8.45 31.5 7.79 31.5 7.65C31.5 7.38 31.28 7.15 31 7.15C30.73 7.15 30.07 7.15 29 7.15C29 7.28 29 7.62 29 8.15C29.2 8.15 29.7 8.15 30.5 8.15Z" id="a7kKGuCQVK"></path><path d="M30.5 8.15C30.5 9.05 30.5 9.55 30.5 9.65C31.1 9.65 31.43 9.65 31.5 9.65C31.5 8.45 31.5 7.79 31.5 7.65C31.5 7.38 31.28 7.15 31 7.15C30.73 7.15 30.07 7.15 29 7.15C29 7.28 29 7.62 29 8.15C29.2 8.15 29.7 8.15 30.5 8.15Z" id="acLsfjTze"></path><path d="M29 24.15C30.2 24.15 30.87 24.15 31 24.15C31.28 24.15 31.5 23.93 31.5 23.65C31.5 23.52 31.5 22.85 31.5 21.65C31.43 21.65 31.1 21.65 30.5 21.65C30.5 21.75 30.5 22.25 30.5 23.15L29 23.15C29 23.77 29 24.1 29 24.15Z" id="bR6Zhyh8J"></path><path d="M29 24.15C30.2 24.15 30.87 24.15 31 24.15C31.28 24.15 31.5 23.93 31.5 23.65C31.5 23.52 31.5 22.85 31.5 21.65C31.43 21.65 31.1 21.65 30.5 21.65C30.5 21.75 30.5 22.25 30.5 23.15L29 23.15C29 23.77 29 24.1 29 24.15Z" id="eo8HfmxU6"></path><path d="M29 24.15C30.2 24.15 30.87 24.15 31 24.15C31.28 24.15 31.5 23.93 31.5 23.65C31.5 23.52 31.5 22.85 31.5 21.65C31.43 21.65 31.1 21.65 30.5 21.65C30.5 21.75 30.5 22.25 30.5 23.15L29 23.15C29 23.77 29 24.1 29 24.15Z" id="bmfELPkYp"></path><path d="M29 24.15C30.2 24.15 30.87 24.15 31 24.15C31.28 24.15 31.5 23.93 31.5 23.65C31.5 23.52 31.5 22.85 31.5 21.65C31.43 21.65 31.1 21.65 30.5 21.65C30.5 21.75 30.5 22.25 30.5 23.15L29 23.15C29 23.77 29 24.1 29 24.15Z" id="b2dq4BiGr5"></path><path d="M5.5 23.65C5.5 23.93 5.72 24.15 6 24.15C6.13 24.15 6.8 24.15 8 24.15C8 24.08 8 23.75 8 23.15C7.9 23.15 7.4 23.15 6.5 23.15C6.5 22.25 6.5 21.75 6.5 21.65C5.9 21.65 5.57 21.65 5.5 21.65C5.5 22.85 5.5 23.52 5.5 23.65Z" id="b1L3ueLIJq"></path><path d="M5.5 23.65C5.5 23.93 5.72 24.15 6 24.15C6.13 24.15 6.8 24.15 8 24.15C8 24.08 8 23.75 8 23.15C7.9 23.15 7.4 23.15 6.5 23.15C6.5 22.25 6.5 21.75 6.5 21.65C5.9 21.65 5.57 21.65 5.5 21.65C5.5 22.85 5.5 23.52 5.5 23.65Z" id="c1bkl0lL8s"></path><path d="M5.5 23.65C5.5 23.93 5.72 24.15 6 24.15C6.13 24.15 6.8 24.15 8 24.15C8 24.08 8 23.75 8 23.15C7.9 23.15 7.4 23.15 6.5 23.15C6.5 22.25 6.5 21.75 6.5 21.65C5.9 21.65 5.57 21.65 5.5 21.65C5.5 22.85 5.5 23.52 5.5 23.65Z" id="b1nfcr8WZl"></path><path d="M5.5 23.65C5.5 23.93 5.72 24.15 6 24.15C6.13 24.15 6.8 24.15 8 24.15C8 24.08 8 23.75 8 23.15C7.9 23.15 7.4 23.15 6.5 23.15C6.5 22.25 6.5 21.75 6.5 21.65C5.9 21.65 5.57 21.65 5.5 21.65C5.5 22.85 5.5 23.52 5.5 23.65Z" id="a3dPn6zkGm"></path><path d="M24.5 11.65C24.5 11.65 24.5 11.65 24.5 11.65C17.3 11.65 13.3 11.65 12.5 11.65C12.5 11.65 12.5 11.65 12.5 11.65C12.5 11.05 12.5 10.72 12.5 10.65C12.5 10.65 12.5 10.65 12.5 10.65C19.7 10.65 23.7 10.65 24.5 10.65C24.5 10.65 24.5 10.65 24.5 10.65C24.5 11.25 24.5 11.59 24.5 11.65Z" id="k2YBFHml2"></path><path d="M24.5 11.65C24.5 11.65 24.5 11.65 24.5 11.65C17.3 11.65 13.3 11.65 12.5 11.65C12.5 11.65 12.5 11.65 12.5 11.65C12.5 11.05 12.5 10.72 12.5 10.65C12.5 10.65 12.5 10.65 12.5 10.65C19.7 10.65 23.7 10.65 24.5 10.65C24.5 10.65 24.5 10.65 24.5 10.65C24.5 11.25 24.5 11.59 24.5 11.65Z" id="c17fE1kqTn"></path><path d="M24.5 11.65C24.5 11.65 24.5 11.65 24.5 11.65C17.3 11.65 13.3 11.65 12.5 11.65C12.5 11.65 12.5 11.65 12.5 11.65C12.5 11.05 12.5 10.72 12.5 10.65C12.5 10.65 12.5 10.65 12.5 10.65C19.7 10.65 23.7 10.65 24.5 10.65C24.5 10.65 24.5 10.65 24.5 10.65C24.5 11.25 24.5 11.59 24.5 11.65Z" id="f3msF4omGK"></path><path d="M24.5 11.65C24.5 11.65 24.5 11.65 24.5 11.65C17.3 11.65 13.3 11.65 12.5 11.65C12.5 11.65 12.5 11.65 12.5 11.65C12.5 11.05 12.5 10.72 12.5 10.65C12.5 10.65 12.5 10.65 12.5 10.65C19.7 10.65 23.7 10.65 24.5 10.65C24.5 10.65 24.5 10.65 24.5 10.65C24.5 11.25 24.5 11.59 24.5 11.65Z" id="baVUnTeoI"></path><path d="M27.5 14.65C27.5 14.65 27.5 14.65 27.5 14.65C16.7 14.65 10.7 14.65 9.5 14.65C9.5 14.65 9.5 14.65 9.5 14.65C9.5 14.05 9.5 13.72 9.5 13.65C9.5 13.65 9.5 13.65 9.5 13.65C20.3 13.65 26.3 13.65 27.5 13.65C27.5 13.65 27.5 13.65 27.5 13.65C27.5 14.25 27.5 14.59 27.5 14.65Z" id="aNAos5CPI"></path><path d="M27.5 14.65C27.5 14.65 27.5 14.65 27.5 14.65C16.7 14.65 10.7 14.65 9.5 14.65C9.5 14.65 9.5 14.65 9.5 14.65C9.5 14.05 9.5 13.72 9.5 13.65C9.5 13.65 9.5 13.65 9.5 13.65C20.3 13.65 26.3 13.65 27.5 13.65C27.5 13.65 27.5 13.65 27.5 13.65C27.5 14.25 27.5 14.59 27.5 14.65Z" id="amgO7CpQA"></path><path d="M27.5 14.65C27.5 14.65 27.5 14.65 27.5 14.65C16.7 14.65 10.7 14.65 9.5 14.65C9.5 14.65 9.5 14.65 9.5 14.65C9.5 14.05 9.5 13.72 9.5 13.65C9.5 13.65 9.5 13.65 9.5 13.65C20.3 13.65 26.3 13.65 27.5 13.65C27.5 13.65 27.5 13.65 27.5 13.65C27.5 14.25 27.5 14.59 27.5 14.65Z" id="f5VVJGaJL"></path><path d="M27.5 14.65C27.5 14.65 27.5 14.65 27.5 14.65C16.7 14.65 10.7 14.65 9.5 14.65C9.5 14.65 9.5 14.65 9.5 14.65C9.5 14.05 9.5 13.72 9.5 13.65C9.5 13.65 9.5 13.65 9.5 13.65C20.3 13.65 26.3 13.65 27.5 13.65C27.5 13.65 27.5 13.65 27.5 13.65C27.5 14.25 27.5 14.59 27.5 14.65Z" id="b1Ms61Mav0"></path><path d="M22 25.65C22 23.72 20.43 22.15 18.5 22.15C16.57 22.15 15 23.72 15 25.65C15 27.58 16.57 29.15 18.5 29.15C20.43 29.15 22 27.58 22 25.65ZM21 25.65C21 27.03 19.88 28.15 18.5 28.15C17.12 28.15 16 27.03 16 25.65C16 24.27 17.12 23.15 18.5 23.15C19.88 23.15 21 24.27 21 25.65Z" id="c1KZvxuXk3"></path><path d="M22 25.65C22 23.72 20.43 22.15 18.5 22.15C16.57 22.15 15 23.72 15 25.65C15 27.58 16.57 29.15 18.5 29.15C20.43 29.15 22 27.58 22 25.65ZM21 25.65C21 27.03 19.88 28.15 18.5 28.15C17.12 28.15 16 27.03 16 25.65C16 24.27 17.12 23.15 18.5 23.15C19.88 23.15 21 24.27 21 25.65Z" id="a1twLCZwKI"></path><path d="M22 25.65C22 23.72 20.43 22.15 18.5 22.15C16.57 22.15 15 23.72 15 25.65C15 27.58 16.57 29.15 18.5 29.15C20.43 29.15 22 27.58 22 25.65ZM21 25.65C21 27.03 19.88 28.15 18.5 28.15C17.12 28.15 16 27.03 16 25.65C16 24.27 17.12 23.15 18.5 23.15C19.88 23.15 21 24.27 21 25.65Z" id="a2HnxRtdFB"></path><path d="M22 25.65C22 23.72 20.43 22.15 18.5 22.15C16.57 22.15 15 23.72 15 25.65C15 27.58 16.57 29.15 18.5 29.15C20.43 29.15 22 27.58 22 25.65ZM21 25.65C21 27.03 19.88 28.15 18.5 28.15C17.12 28.15 16 27.03 16 25.65C16 24.27 17.12 23.15 18.5 23.15C19.88 23.15 21 24.27 21 25.65Z" id="bw0IdhNCu"></path></defs><g><g><g><use xlink:href="#chn5H9Sla" opacity="1" fill="#000000" fill-opacity="1"></use><g><use xlink:href="#chn5H9Sla" opacity="1" fill-opacity="0" stroke="#000000" stroke-width="1" stroke-opacity="0"></use></g></g><g><use xlink:href="#b4f2wLUjBP" opacity="1" fill="#000000" fill-opacity="0"></use><g><use xlink:href="#b4f2wLUjBP" opacity="1" fill-opacity="0" stroke="#000000" stroke-width="1" stroke-opacity="0"></use></g></g><g><use xlink:href="#i26cFEHCSQ" opacity="1" fill="#000000" fill-opacity="0"></use><g><use xlink:href="#i26cFEHCSQ" opacity="1" fill-opacity="0" stroke="#000000" stroke-width="1" stroke-opacity="0"></use></g></g><g><use xlink:href="#c1DIvcwPyL" opacity="1" fill="#000000" fill-opacity="0"></use><g><use xlink:href="#c1DIvcwPyL" opacity="1" fill-opacity="0" stroke="#000000" stroke-width="1" stroke-opacity="0"></use></g></g><g><use xlink:href="#bRtJ1GHOg" opacity="1" fill="#000000" fill-opacity="1"></use><g><use xlink:href="#bRtJ1GHOg" opacity="1" fill-opacity="0" stroke="#000000" stroke-width="1" stroke-opacity="0"></use></g></g><g><use xlink:href="#cCVqfNNJX" opacity="1" fill="#000000" fill-opacity="0"></use><g><use xlink:href="#cCVqfNNJX" opacity="1" fill-opacity="0" stroke="#000000" stroke-width="1" stroke-opacity="0"></use></g></g><g><use xlink:href="#kondjMpz4" opacity="1" fill="#000000" fill-opacity="0"></use><g><use xlink:href="#kondjMpz4" opacity="1" fill-opacity="0" stroke="#000000" stroke-width="1" stroke-opacity="0"></use></g></g><g><use xlink:href="#e1TCWsmAJn" opacity="1" fill="#000000" fill-opacity="0"></use><g><use xlink:href="#e1TCWsmAJn" opacity="1" fill-opacity="0" stroke="#000000" stroke-width="1" stroke-opacity="0"></use></g></g><g><use xlink:href="#chkw2cQJy" opacity="1" fill="#000000" fill-opacity="1"></use><g><use xlink:href="#chkw2cQJy" opacity="1" fill-opacity="0" stroke="#000000" stroke-width="1" stroke-opacity="0"></use></g></g><g><use xlink:href="#h5UTU2YUA" opacity="1" fill="#000000" fill-opacity="0"></use><g><use xlink:href="#h5UTU2YUA" opacity="1" fill-opacity="0" stroke="#000000" stroke-width="1" stroke-opacity="0"></use></g></g><g><use xlink:href="#a7kKGuCQVK" opacity="1" fill="#000000" fill-opacity="0"></use><g><use xlink:href="#a7kKGuCQVK" opacity="1" fill-opacity="0" stroke="#000000" stroke-width="1" stroke-opacity="0"></use></g></g><g><use xlink:href="#acLsfjTze" opacity="1" fill="#000000" fill-opacity="0"></use><g><use xlink:href="#acLsfjTze" opacity="1" fill-opacity="0" stroke="#000000" stroke-width="1" stroke-opacity="0"></use></g></g><g><use xlink:href="#bR6Zhyh8J" opacity="1" fill="#000000" fill-opacity="1"></use><g><use xlink:href="#bR6Zhyh8J" opacity="1" fill-opacity="0" stroke="#000000" stroke-width="1" stroke-opacity="0"></use></g></g><g><use xlink:href="#eo8HfmxU6" opacity="1" fill="#000000" fill-opacity="0"></use><g><use xlink:href="#eo8HfmxU6" opacity="1" fill-opacity="0" stroke="#000000" stroke-width="1" stroke-opacity="0"></use></g></g><g><use xlink:href="#bmfELPkYp" opacity="1" fill="#000000" fill-opacity="0"></use><g><use xlink:href="#bmfELPkYp" opacity="1" fill-opacity="0" stroke="#000000" stroke-width="1" stroke-opacity="0"></use></g></g><g><use xlink:href="#b2dq4BiGr5" opacity="1" fill="#000000" fill-opacity="0"></use><g><use xlink:href="#b2dq4BiGr5" opacity="1" fill-opacity="0" stroke="#000000" stroke-width="1" stroke-opacity="0"></use></g></g><g><use xlink:href="#b1L3ueLIJq" opacity="1" fill="#000000" fill-opacity="1"></use><g><use xlink:href="#b1L3ueLIJq" opacity="1" fill-opacity="0" stroke="#000000" stroke-width="1" stroke-opacity="0"></use></g></g><g><use xlink:href="#c1bkl0lL8s" opacity="1" fill="#000000" fill-opacity="0"></use><g><use xlink:href="#c1bkl0lL8s" opacity="1" fill-opacity="0" stroke="#000000" stroke-width="1" stroke-opacity="0"></use></g></g><g><use xlink:href="#b1nfcr8WZl" opacity="1" fill="#000000" fill-opacity="0"></use><g><use xlink:href="#b1nfcr8WZl" opacity="1" fill-opacity="0" stroke="#000000" stroke-width="1" stroke-opacity="0"></use></g></g><g><use xlink:href="#a3dPn6zkGm" opacity="1" fill="#000000" fill-opacity="0"></use><g><use xlink:href="#a3dPn6zkGm" opacity="1" fill-opacity="0" stroke="#000000" stroke-width="1" stroke-opacity="0"></use></g></g><g><use xlink:href="#k2YBFHml2" opacity="1" fill="#000000" fill-opacity="1"></use><g><use xlink:href="#k2YBFHml2" opacity="1" fill-opacity="0" stroke="#000000" stroke-width="1" stroke-opacity="0"></use></g></g><g><use xlink:href="#c17fE1kqTn" opacity="1" fill="#000000" fill-opacity="0"></use><g><use xlink:href="#c17fE1kqTn" opacity="1" fill-opacity="0" stroke="#000000" stroke-width="1" stroke-opacity="0"></use></g></g><g><use xlink:href="#f3msF4omGK" opacity="1" fill="#000000" fill-opacity="0"></use><g><use xlink:href="#f3msF4omGK" opacity="1" fill-opacity="0" stroke="#000000" stroke-width="1" stroke-opacity="0"></use></g></g><g><use xlink:href="#baVUnTeoI" opacity="1" fill="#000000" fill-opacity="0"></use><g><use xlink:href="#baVUnTeoI" opacity="1" fill-opacity="0" stroke="#000000" stroke-width="1" stroke-opacity="0"></use></g></g><g><use xlink:href="#aNAos5CPI" opacity="1" fill="#000000" fill-opacity="1"></use><g><use xlink:href="#aNAos5CPI" opacity="1" fill-opacity="0" stroke="#000000" stroke-width="1" stroke-opacity="0"></use></g></g><g><use xlink:href="#amgO7CpQA" opacity="1" fill="#000000" fill-opacity="0"></use><g><use xlink:href="#amgO7CpQA" opacity="1" fill-opacity="0" stroke="#000000" stroke-width="1" stroke-opacity="0"></use></g></g><g><use xlink:href="#f5VVJGaJL" opacity="1" fill="#000000" fill-opacity="0"></use><g><use xlink:href="#f5VVJGaJL" opacity="1" fill-opacity="0" stroke="#000000" stroke-width="1" stroke-opacity="0"></use></g></g><g><use xlink:href="#b1Ms61Mav0" opacity="1" fill="#000000" fill-opacity="0"></use><g><use xlink:href="#b1Ms61Mav0" opacity="1" fill-opacity="0" stroke="#000000" stroke-width="1" stroke-opacity="0"></use></g></g><g><use xlink:href="#c1KZvxuXk3" opacity="1" fill="#000000" fill-opacity="1"></use><g><use xlink:href="#c1KZvxuXk3" opacity="1" fill-opacity="0" stroke="#000000" stroke-width="1" stroke-opacity="0"></use></g></g><g><use xlink:href="#a1twLCZwKI" opacity="1" fill="#000000" fill-opacity="0"></use><g><use xlink:href="#a1twLCZwKI" opacity="1" fill-opacity="0" stroke="#000000" stroke-width="1" stroke-opacity="0"></use></g></g><g><use xlink:href="#a2HnxRtdFB" opacity="1" fill="#000000" fill-opacity="0"></use><g><use xlink:href="#a2HnxRtdFB" opacity="1" fill-opacity="0" stroke="#000000" stroke-width="1" stroke-opacity="0"></use></g></g><g><use xlink:href="#bw0IdhNCu" opacity="1" fill="#000000" fill-opacity="0"></use><g><use xlink:href="#bw0IdhNCu" opacity="1" fill-opacity="0" stroke="#000000" stroke-width="1" stroke-opacity="0"></use></g></g></g></g></svg>