<?xml version="1.0" encoding="UTF-8" standalone="no"?>
<!DOCTYPE svg PUBLIC "-//W3C//DTD SVG 1.1//EN" "http://www.w3.org/Graphics/SVG/1.1/DTD/svg11.dtd">
<svg version="1.1" xmlns="http://www.w3.org/2000/svg" xmlns:xlink="http://www.w3.org/1999/xlink" preserveAspectRatio="xMidYMid meet" viewBox="0 0 35 35" width="35" height="35"><defs><path d="M22.41 16.69C24.36 15.21 25.63 12.87 25.63 10.24C25.63 5.76 21.98 2.11 17.5 2.11C13.02 2.11 9.38 5.76 9.38 10.24C9.38 12.87 10.64 15.21 12.59 16.69C11.4 17.1 10.28 17.66 9.25 18.34C9.18 18.38 9.11 18.43 9.04 18.48C5.1 21.18 2.5 25.72 2.5 30.86C2.5 31.55 3.06 32.11 3.75 32.11C4.44 32.11 5 31.55 5 30.86C5 26.91 6.85 23.39 9.72 21.1C10.41 21.78 15.93 27.3 16.62 27.99C16.85 28.23 17.17 28.36 17.5 28.36C17.83 28.36 18.15 28.23 18.38 27.99C19.07 27.3 24.59 21.78 25.28 21.1C28.15 23.39 30 26.91 30 30.86C30 31.55 30.56 32.11 31.25 32.11C31.94 32.11 32.5 31.55 32.5 30.86C32.5 25.72 29.9 21.18 25.96 18.48C25.89 18.43 25.82 18.38 25.75 18.34C24.72 17.66 23.6 17.1 22.41 16.69ZM23.13 10.24C23.13 13.34 20.6 15.86 17.5 15.86C14.4 15.86 11.88 13.34 11.88 10.24C11.88 7.13 14.4 4.61 17.5 4.61C20.6 4.61 23.13 7.13 23.13 10.24ZM17.5 18.36C19.53 18.36 21.43 18.86 23.13 19.71C22.75 20.09 20.88 21.97 17.5 25.34C14.12 21.96 12.25 20.09 11.87 19.71C13.57 18.86 15.47 18.36 17.5 18.36Z" id="a3HvafwfUM"></path><path d="M22.41 16.69C24.36 15.21 25.63 12.87 25.63 10.24C25.63 5.76 21.98 2.11 17.5 2.11C13.02 2.11 9.38 5.76 9.38 10.24C9.38 12.87 10.64 15.21 12.59 16.69C11.4 17.1 10.28 17.66 9.25 18.34C9.18 18.38 9.11 18.43 9.04 18.48C5.1 21.18 2.5 25.72 2.5 30.86C2.5 31.55 3.06 32.11 3.75 32.11C4.44 32.11 5 31.55 5 30.86C5 26.91 6.85 23.39 9.72 21.1C10.41 21.78 15.93 27.3 16.62 27.99C16.85 28.23 17.17 28.36 17.5 28.36C17.83 28.36 18.15 28.23 18.38 27.99C19.07 27.3 24.59 21.78 25.28 21.1C28.15 23.39 30 26.91 30 30.86C30 31.55 30.56 32.11 31.25 32.11C31.94 32.11 32.5 31.55 32.5 30.86C32.5 25.72 29.9 21.18 25.96 18.48C25.89 18.43 25.82 18.38 25.75 18.34C24.72 17.66 23.6 17.1 22.41 16.69ZM23.13 10.24C23.13 13.34 20.6 15.86 17.5 15.86C14.4 15.86 11.88 13.34 11.88 10.24C11.88 7.13 14.4 4.61 17.5 4.61C20.6 4.61 23.13 7.13 23.13 10.24ZM17.5 18.36C19.53 18.36 21.43 18.86 23.13 19.71C22.75 20.09 20.88 21.97 17.5 25.34C14.12 21.96 12.25 20.09 11.87 19.71C13.57 18.86 15.47 18.36 17.5 18.36Z" id="b1O4HVUo8W"></path><path d="M8.75 30.86C8.75 31.55 9.31 32.11 10 32.11C10.69 32.11 11.25 31.55 11.25 30.86C11.25 30.67 11.25 29.17 11.25 28.99C11.25 28.3 10.69 27.74 10 27.74C9.31 27.74 8.75 28.3 8.75 28.99C8.75 29.17 8.75 30.67 8.75 30.86Z" id="f3lt91xAWI"></path><path d="M8.75 30.86C8.75 31.55 9.31 32.11 10 32.11C10.69 32.11 11.25 31.55 11.25 30.86C11.25 30.67 11.25 29.17 11.25 28.99C11.25 28.3 10.69 27.74 10 27.74C9.31 27.74 8.75 28.3 8.75 28.99C8.75 29.17 8.75 30.67 8.75 30.86Z" id="a8Ed4oTST"></path><path d="M24.38 30.86C24.38 31.55 24.94 32.11 25.63 32.11C26.32 32.11 26.88 31.55 26.88 30.86C26.88 30.67 26.88 29.17 26.88 28.99C26.88 28.3 26.32 27.74 25.63 27.74C24.94 27.74 24.38 28.3 24.38 28.99C24.38 29.17 24.38 30.67 24.38 30.86Z" id="ajGkNsR42"></path><path d="M24.38 30.86C24.38 31.55 24.94 32.11 25.63 32.11C26.32 32.11 26.88 31.55 26.88 30.86C26.88 30.67 26.88 29.17 26.88 28.99C26.88 28.3 26.32 27.74 25.63 27.74C24.94 27.74 24.38 28.3 24.38 28.99C24.38 29.17 24.38 30.67 24.38 30.86Z" id="aqLHa5fDv"></path></defs><g><g><g><use xlink:href="#a3HvafwfUM" opacity="1" fill="#000000" fill-opacity="1"></use><g><use xlink:href="#a3HvafwfUM" opacity="1" fill-opacity="0" stroke="#000000" stroke-width="1" stroke-opacity="0"></use></g></g><g><use xlink:href="#b1O4HVUo8W" opacity="1" fill="#000000" fill-opacity="0"></use><g><use xlink:href="#b1O4HVUo8W" opacity="1" fill-opacity="0" stroke="#000000" stroke-width="1" stroke-opacity="0"></use></g></g><g><use xlink:href="#f3lt91xAWI" opacity="1" fill="#000000" fill-opacity="1"></use><g><use xlink:href="#f3lt91xAWI" opacity="1" fill-opacity="0" stroke="#000000" stroke-width="1" stroke-opacity="0"></use></g></g><g><use xlink:href="#a8Ed4oTST" opacity="1" fill="#000000" fill-opacity="0"></use><g><use xlink:href="#a8Ed4oTST" opacity="1" fill-opacity="0" stroke="#000000" stroke-width="1" stroke-opacity="0"></use></g></g><g><use xlink:href="#ajGkNsR42" opacity="1" fill="#000000" fill-opacity="1"></use><g><use xlink:href="#ajGkNsR42" opacity="1" fill-opacity="0" stroke="#000000" stroke-width="1" stroke-opacity="0"></use></g></g><g><use xlink:href="#aqLHa5fDv" opacity="1" fill="#000000" fill-opacity="0"></use><g><use xlink:href="#aqLHa5fDv" opacity="1" fill-opacity="0" stroke="#000000" stroke-width="1" stroke-opacity="0"></use></g></g></g></g></svg>