<?xml version="1.0" encoding="UTF-8" standalone="no"?>
<!DOCTYPE svg PUBLIC "-//W3C//DTD SVG 1.1//EN" "http://www.w3.org/Graphics/SVG/1.1/DTD/svg11.dtd">
<svg version="1.1" xmlns="http://www.w3.org/2000/svg" xmlns:xlink="http://www.w3.org/1999/xlink" preserveAspectRatio="xMidYMid meet" viewBox="0 0 40 40" width="40" height="40"><defs><path d="M0.35 8.42C0.35 10.67 0.35 28.67 0.35 30.92C0.35 32.99 2.03 34.67 4.1 34.67C7.35 34.67 33.35 34.67 36.6 34.67C38.67 34.67 40.35 32.99 40.35 30.92C40.35 28.67 40.35 10.67 40.35 8.42C40.35 6.35 38.67 4.67 36.6 4.67C30.1 4.67 7.35 4.67 4.1 4.67C2.03 4.67 0.35 6.35 0.35 8.42ZM37.08 7.27C35.96 8.23 30.39 13.07 20.35 21.77C10.31 13.07 4.74 8.23 3.62 7.27C3.77 7.21 3.93 7.17 4.1 7.17C10.6 7.17 30.1 7.17 36.6 7.17C36.77 7.17 36.93 7.2 37.08 7.27ZM2.85 30.92C2.85 29.52 2.85 22.51 2.85 9.91C12.86 18.58 18.42 23.4 19.53 24.36C19.77 24.57 20.06 24.67 20.35 24.67C20.64 24.67 20.93 24.57 21.17 24.36C22.28 23.4 27.84 18.58 37.85 9.91C37.85 22.51 37.85 29.52 37.85 30.92C37.85 31.61 37.29 32.17 36.6 32.17C30.1 32.17 7.35 32.17 4.1 32.17C3.41 32.17 2.85 31.61 2.85 30.92Z" id="b2Ou9ms0qu"></path><path d="M0.35 8.42C0.35 10.67 0.35 28.67 0.35 30.92C0.35 32.99 2.03 34.67 4.1 34.67C7.35 34.67 33.35 34.67 36.6 34.67C38.67 34.67 40.35 32.99 40.35 30.92C40.35 28.67 40.35 10.67 40.35 8.42C40.35 6.35 38.67 4.67 36.6 4.67C30.1 4.67 7.35 4.67 4.1 4.67C2.03 4.67 0.35 6.35 0.35 8.42ZM37.08 7.27C35.96 8.23 30.39 13.07 20.35 21.77C10.31 13.07 4.74 8.23 3.62 7.27C3.77 7.21 3.93 7.17 4.1 7.17C10.6 7.17 30.1 7.17 36.6 7.17C36.77 7.17 36.93 7.2 37.08 7.27ZM2.85 30.92C2.85 29.52 2.85 22.51 2.85 9.91C12.86 18.58 18.42 23.4 19.53 24.36C19.77 24.57 20.06 24.67 20.35 24.67C20.64 24.67 20.93 24.57 21.17 24.36C22.28 23.4 27.84 18.58 37.85 9.91C37.85 22.51 37.85 29.52 37.85 30.92C37.85 31.61 37.29 32.17 36.6 32.17C30.1 32.17 7.35 32.17 4.1 32.17C3.41 32.17 2.85 31.61 2.85 30.92Z" id="a6PLSdGmb"></path></defs><g><g><g><use xlink:href="#b2Ou9ms0qu" opacity="1" fill="#000000" fill-opacity="1"></use><g><use xlink:href="#b2Ou9ms0qu" opacity="1" fill-opacity="0" stroke="#000000" stroke-width="1" stroke-opacity="0"></use></g></g><g><use xlink:href="#a6PLSdGmb" opacity="1" fill="#000000" fill-opacity="0"></use><g><use xlink:href="#a6PLSdGmb" opacity="1" fill-opacity="0" stroke="#000000" stroke-width="1" stroke-opacity="0"></use></g></g></g></g></svg>