<?xml version="1.0" encoding="UTF-8" standalone="no"?>
<!DOCTYPE svg PUBLIC "-//W3C//DTD SVG 1.1//EN" "http://www.w3.org/Graphics/SVG/1.1/DTD/svg11.dtd">
<svg version="1.1" xmlns="http://www.w3.org/2000/svg" xmlns:xlink="http://www.w3.org/1999/xlink" preserveAspectRatio="xMidYMid meet" viewBox="0 0 35 35" width="35" height="35"><defs><path d="M16.02 20.8C16.02 21.26 16.63 21.72 17.5 21.72C18.33 21.72 19 21.26 19 20.8C19 20.07 19 14.19 19 13.46C19 12.92 18.33 12.55 17.5 12.55C16.63 12.55 16.02 12.92 16.02 13.46C16.02 14.19 16.02 20.07 16.02 20.8Z" id="a1b5yoAMJf"></path><path d="M16.02 20.8C16.02 21.26 16.63 21.72 17.5 21.72C18.33 21.72 19 21.26 19 20.8C19 20.07 19 14.19 19 13.46C19 12.92 18.33 12.55 17.5 12.55C16.63 12.55 16.02 12.92 16.02 13.46C16.02 14.19 16.02 20.07 16.02 20.8Z" id="n2lYw8pmjJ"></path><path d="M17.5 10.78C18.37 10.78 19.06 10.12 19.06 9.39C19.06 8.66 18.37 8.02 17.5 8.02C16.61 8.02 15.92 8.66 15.92 9.39C15.92 10.12 16.61 10.78 17.5 10.78Z" id="d56yWMTkO"></path><path d="M17.5 10.78C18.37 10.78 19.06 10.12 19.06 9.39C19.06 8.66 18.37 8.02 17.5 8.02C16.61 8.02 15.92 8.66 15.92 9.39C15.92 10.12 16.61 10.78 17.5 10.78Z" id="i2eGK5sqWY"></path><path d="M12.96 29.37C13.3 29.88 16.03 33.9 16.37 34.4C16.63 34.78 17.05 35 17.5 35C17.95 35 18.37 34.78 18.63 34.4C18.97 33.9 21.7 29.88 22.04 29.37C28.05 27.46 32.5 21.84 32.5 15.08C32.5 6.79 25.79 0.09 17.5 0.09C9.21 0.09 2.5 6.8 2.5 15.08C2.5 21.85 6.95 27.47 12.96 29.37ZM17.5 31.21C15.97 28.95 15.11 27.69 14.94 27.44C14.76 27.17 14.49 26.98 14.18 26.89C9.07 25.46 5.23 20.76 5.23 15.08C5.23 8.32 10.73 2.82 17.5 2.82C24.27 2.82 29.77 8.32 29.77 15.08C29.77 20.77 25.92 25.47 20.82 26.89C20.51 26.98 20.24 27.17 20.06 27.44C19.89 27.69 19.03 28.95 17.5 31.21Z" id="iaQwpv5xm"></path><path d="M12.96 29.37C13.3 29.88 16.03 33.9 16.37 34.4C16.63 34.78 17.05 35 17.5 35C17.95 35 18.37 34.78 18.63 34.4C18.97 33.9 21.7 29.88 22.04 29.37C28.05 27.46 32.5 21.84 32.5 15.08C32.5 6.79 25.79 0.09 17.5 0.09C9.21 0.09 2.5 6.8 2.5 15.08C2.5 21.85 6.95 27.47 12.96 29.37ZM17.5 31.21C15.97 28.95 15.11 27.69 14.94 27.44C14.76 27.17 14.49 26.98 14.18 26.89C9.07 25.46 5.23 20.76 5.23 15.08C5.23 8.32 10.73 2.82 17.5 2.82C24.27 2.82 29.77 8.32 29.77 15.08C29.77 20.77 25.92 25.47 20.82 26.89C20.51 26.98 20.24 27.17 20.06 27.44C19.89 27.69 19.03 28.95 17.5 31.21Z" id="a1V85NBdUh"></path></defs><g><g><g><use xlink:href="#a1b5yoAMJf" opacity="1" fill="#000000" fill-opacity="1"></use><g><use xlink:href="#a1b5yoAMJf" opacity="1" fill-opacity="0" stroke="#000000" stroke-width="1" stroke-opacity="0"></use></g></g><g><use xlink:href="#n2lYw8pmjJ" opacity="1" fill="#000000" fill-opacity="0"></use><g><use xlink:href="#n2lYw8pmjJ" opacity="1" fill-opacity="0" stroke="#000000" stroke-width="1" stroke-opacity="0"></use></g></g><g><use xlink:href="#d56yWMTkO" opacity="1" fill="#000000" fill-opacity="1"></use><g><use xlink:href="#d56yWMTkO" opacity="1" fill-opacity="0" stroke="#000000" stroke-width="1" stroke-opacity="0"></use></g></g><g><use xlink:href="#i2eGK5sqWY" opacity="1" fill="#000000" fill-opacity="0"></use><g><use xlink:href="#i2eGK5sqWY" opacity="1" fill-opacity="0" stroke="#000000" stroke-width="1" stroke-opacity="0"></use></g></g><g><use xlink:href="#iaQwpv5xm" opacity="1" fill="#000000" fill-opacity="1"></use><g><use xlink:href="#iaQwpv5xm" opacity="1" fill-opacity="0" stroke="#000000" stroke-width="1" stroke-opacity="0"></use></g></g><g><use xlink:href="#a1V85NBdUh" opacity="1" fill="#000000" fill-opacity="0"></use><g><use xlink:href="#a1V85NBdUh" opacity="1" fill-opacity="0" stroke="#000000" stroke-width="1" stroke-opacity="0"></use></g></g></g></g></svg>