<?xml version="1.0" encoding="UTF-8" standalone="no"?>
<!DOCTYPE svg PUBLIC "-//W3C//DTD SVG 1.1//EN" "http://www.w3.org/Graphics/SVG/1.1/DTD/svg11.dtd">
<svg version="1.1" xmlns="http://www.w3.org/2000/svg" xmlns:xlink="http://www.w3.org/1999/xlink" preserveAspectRatio="xMidYMid meet" viewBox="0 0 40 40" width="40" height="40"><defs><path d="M8.82 11.22C8.82 11.22 8.85 11.22 8.86 11.22C11.1 11.22 12.5 9.73 12.5 7.87C12.45 5.97 11.1 4.53 8.9 4.53C6.7 4.53 5.26 5.97 5.26 7.87C5.26 9.73 6.66 11.22 8.82 11.22Z" id="a9d36I3LJ"></path><path d="M8.82 11.22C8.82 11.22 8.85 11.22 8.86 11.22C11.1 11.22 12.5 9.73 12.5 7.87C12.45 5.97 11.1 4.53 8.9 4.53C6.7 4.53 5.26 5.97 5.26 7.87C5.26 9.73 6.66 11.22 8.82 11.22Z" id="a2aOfsx9aL"></path><path d="M12.07 13.86L12.07 33.21L5.64 33.21L5.64 13.86L12.07 13.86Z" id="f1Nz7zb1IT"></path><path d="M12.07 13.86L12.07 33.21L5.64 33.21L5.64 13.86L12.07 13.86Z" id="a1AUaE7Cc1"></path><path d="M22.06 13.86C21.63 13.86 19.49 13.86 15.63 13.86L15.63 33.21C19.49 33.21 21.63 33.21 22.06 33.21C22.06 26.72 22.06 23.12 22.06 22.4C22.06 21.82 22.1 21.25 22.27 20.83C22.74 19.68 23.8 18.48 25.57 18.48C27.9 18.48 28.83 20.25 28.83 22.86C28.83 23.55 28.83 27 28.83 33.21C29.48 33.21 34.62 33.21 35.26 33.21C35.26 26.55 35.26 22.85 35.26 22.11C35.26 16.17 32.09 13.4 27.86 13.4C24.39 13.4 23.22 16.01 22.06 16.66C22.06 16.48 22.06 15.54 22.06 13.86Z" id="ci97FZOrJ"></path><path d="M22.06 13.86C21.63 13.86 19.49 13.86 15.63 13.86L15.63 33.21C19.49 33.21 21.63 33.21 22.06 33.21C22.06 26.72 22.06 23.12 22.06 22.4C22.06 21.82 22.1 21.25 22.27 20.83C22.74 19.68 23.8 18.48 25.57 18.48C27.9 18.48 28.83 20.25 28.83 22.86C28.83 23.55 28.83 27 28.83 33.21C29.48 33.21 34.62 33.21 35.26 33.21C35.26 26.55 35.26 22.85 35.26 22.11C35.26 16.17 32.09 13.4 27.86 13.4C24.39 13.4 23.22 16.01 22.06 16.66C22.06 16.48 22.06 15.54 22.06 13.86Z" id="fB3HTOQlU"></path></defs><g><g><g><use xlink:href="#a9d36I3LJ" opacity="1" fill="#000000" fill-opacity="1"></use><g><use xlink:href="#a9d36I3LJ" opacity="1" fill-opacity="0" stroke="#000000" stroke-width="1" stroke-opacity="0"></use></g></g><g><use xlink:href="#a2aOfsx9aL" opacity="1" fill="#000000" fill-opacity="0"></use><g><use xlink:href="#a2aOfsx9aL" opacity="1" fill-opacity="0" stroke="#000000" stroke-width="1" stroke-opacity="0"></use></g></g><g><use xlink:href="#f1Nz7zb1IT" opacity="1" fill="#000000" fill-opacity="1"></use><g><use xlink:href="#f1Nz7zb1IT" opacity="1" fill-opacity="0" stroke="#000000" stroke-width="1" stroke-opacity="0"></use></g></g><g><use xlink:href="#a1AUaE7Cc1" opacity="1" fill="#000000" fill-opacity="0"></use><g><use xlink:href="#a1AUaE7Cc1" opacity="1" fill-opacity="0" stroke="#000000" stroke-width="1" stroke-opacity="0"></use></g></g><g><use xlink:href="#ci97FZOrJ" opacity="1" fill="#000000" fill-opacity="1"></use><g><use xlink:href="#ci97FZOrJ" opacity="1" fill-opacity="0" stroke="#000000" stroke-width="1" stroke-opacity="0"></use></g></g><g><use xlink:href="#fB3HTOQlU" opacity="1" fill="#000000" fill-opacity="0"></use><g><use xlink:href="#fB3HTOQlU" opacity="1" fill-opacity="0" stroke="#000000" stroke-width="1" stroke-opacity="0"></use></g></g></g></g></svg>