<?xml version="1.0" encoding="UTF-8" standalone="no"?>
<!DOCTYPE svg PUBLIC "-//W3C//DTD SVG 1.1//EN" "http://www.w3.org/Graphics/SVG/1.1/DTD/svg11.dtd">
<svg version="1.1" xmlns="http://www.w3.org/2000/svg" xmlns:xlink="http://www.w3.org/1999/xlink" preserveAspectRatio="xMidYMid meet" viewBox="0 0 35 35" width="35" height="35"><defs><path d="M28.09 1.17C26.79 0.21 24.95 0.52 24.04 1.87C23.91 2.07 23.23 3.09 22 4.92C11.47 4.92 5.62 4.92 4.45 4.92C3 4.92 1.83 6.1 1.83 7.54C1.83 9.21 1.83 22.59 1.83 24.27C1.83 25.71 3 26.88 4.45 26.88C5.12 26.88 8.51 26.88 14.61 26.88C14.53 27.2 13.92 29.78 13.84 30.11C12.85 30.11 12.3 30.11 12.18 30.11C11.1 30.11 10.23 30.99 10.23 32.07C10.23 32.09 10.23 32.23 10.23 32.48C9 32.48 8.32 32.48 8.18 32.48C7.82 32.48 7.53 32.77 7.53 33.12C7.53 33.48 7.82 33.77 8.18 33.77C9.91 33.77 23.75 33.77 25.48 33.77C25.83 33.77 26.12 33.48 26.12 33.12C26.12 32.77 25.83 32.48 25.48 32.48C25.34 32.48 24.66 32.48 23.43 32.48C23.43 32.23 23.43 32.09 23.43 32.07C23.43 30.99 22.55 30.11 21.47 30.11C21.36 30.11 20.81 30.11 19.82 30.11C19.74 29.78 19.13 27.2 19.05 26.88C25.15 26.88 28.54 26.88 29.21 26.88C30.66 26.88 31.83 25.71 31.83 24.27C31.83 24.02 31.83 22.79 31.83 20.59C31.83 12.76 31.83 8.41 31.83 7.54C31.83 6.1 30.66 4.92 29.21 4.92C29.21 4.92 28.86 4.92 28.82 4.92C29.57 3.7 29.29 2.06 28.09 1.17ZM17.35 12.09C17.65 12.03 17.97 12 18.24 12C19.02 12.58 19.8 13.17 20.58 13.74C20.92 14.73 20.79 15.71 19.93 16.31C18.92 17.02 17.02 16.05 15.21 17.02C14.77 14.72 15.05 12.56 17.35 12.09ZM21.01 12.45C20.43 12.01 19.93 11.64 19.35 11.21C19.47 11.03 20.47 9.53 20.58 9.37C20.83 9.55 21.44 10 22.42 10.73C21.57 11.76 21.1 12.33 21.01 12.45ZM27.32 2.21C28.02 2.73 28.15 3.74 27.59 4.42C26.6 5.63 24.24 8.51 23.24 9.72C23.11 9.63 22.47 9.15 21.31 8.29C23.34 5.25 24.61 3.35 25.12 2.59C25.61 1.86 26.61 1.69 27.32 2.21ZM11.52 32.48C11.52 32.23 11.52 32.09 11.52 32.07C11.52 31.7 11.82 31.4 12.18 31.4C13.11 31.4 20.55 31.4 21.47 31.4C21.84 31.4 22.14 31.7 22.14 32.07C22.14 32.12 22.14 32.26 22.14 32.48C20.02 32.48 12.58 32.48 11.52 32.48ZM15.17 30.11L15.94 26.88L17.72 26.88L18.49 30.11L15.17 30.11ZM29.21 25.59C28.18 25.59 5.6 25.59 4.45 25.59C3.72 25.59 3.13 24.99 3.13 24.27C3.13 24.06 3.13 23.05 3.13 21.23C4.24 21.23 4.85 21.23 4.98 21.23C5.33 21.23 5.62 20.94 5.62 20.59C5.62 20.23 5.33 19.94 4.98 19.94C4.85 19.94 4.24 19.94 3.12 19.94C3.12 12.5 3.12 8.37 3.12 7.54C3.12 6.81 3.72 6.22 4.45 6.22C6.11 6.22 19.46 6.22 21.13 6.22C20.51 7.15 18.7 9.85 18.13 10.71C16.86 10.72 15.59 11.16 14.76 12.13C13.63 13.45 13.43 15.52 14.17 18.28C14.3 18.76 14.89 18.92 15.25 18.58C16.92 16.98 19.01 18.73 20.87 17.22C22.02 16.29 22.28 14.83 21.86 13.46C22.44 12.75 27.21 6.93 27.79 6.22C27.93 6.22 29.07 6.22 29.21 6.22C29.94 6.22 30.53 6.81 30.53 7.54C30.53 8.37 30.53 12.5 30.53 19.94C18.31 19.94 11.52 19.94 10.16 19.94C9.8 19.94 9.51 20.23 9.51 20.59C9.51 20.94 9.8 21.23 10.16 21.23C11.52 21.23 18.31 21.23 30.53 21.23C30.53 22.85 30.53 23.86 30.53 24.27C30.53 24.99 29.94 25.59 29.21 25.59Z" id="a7HqMpszt"></path><path d="M28.09 1.17C26.79 0.21 24.95 0.52 24.04 1.87C23.91 2.07 23.23 3.09 22 4.92C11.47 4.92 5.62 4.92 4.45 4.92C3 4.92 1.83 6.1 1.83 7.54C1.83 9.21 1.83 22.59 1.83 24.27C1.83 25.71 3 26.88 4.45 26.88C5.12 26.88 8.51 26.88 14.61 26.88C14.53 27.2 13.92 29.78 13.84 30.11C12.85 30.11 12.3 30.11 12.18 30.11C11.1 30.11 10.23 30.99 10.23 32.07C10.23 32.09 10.23 32.23 10.23 32.48C9 32.48 8.32 32.48 8.18 32.48C7.82 32.48 7.53 32.77 7.53 33.12C7.53 33.48 7.82 33.77 8.18 33.77C9.91 33.77 23.75 33.77 25.48 33.77C25.83 33.77 26.12 33.48 26.12 33.12C26.12 32.77 25.83 32.48 25.48 32.48C25.34 32.48 24.66 32.48 23.43 32.48C23.43 32.23 23.43 32.09 23.43 32.07C23.43 30.99 22.55 30.11 21.47 30.11C21.36 30.11 20.81 30.11 19.82 30.11C19.74 29.78 19.13 27.2 19.05 26.88C25.15 26.88 28.54 26.88 29.21 26.88C30.66 26.88 31.83 25.71 31.83 24.27C31.83 24.02 31.83 22.79 31.83 20.59C31.83 12.76 31.83 8.41 31.83 7.54C31.83 6.1 30.66 4.92 29.21 4.92C29.21 4.92 28.86 4.92 28.82 4.92C29.57 3.7 29.29 2.06 28.09 1.17ZM17.35 12.09C17.65 12.03 17.97 12 18.24 12C19.02 12.58 19.8 13.17 20.58 13.74C20.92 14.73 20.79 15.71 19.93 16.31C18.92 17.02 17.02 16.05 15.21 17.02C14.77 14.72 15.05 12.56 17.35 12.09ZM21.01 12.45C20.43 12.01 19.93 11.64 19.35 11.21C19.47 11.03 20.47 9.53 20.58 9.37C20.83 9.55 21.44 10 22.42 10.73C21.57 11.76 21.1 12.33 21.01 12.45ZM27.32 2.21C28.02 2.73 28.15 3.74 27.59 4.42C26.6 5.63 24.24 8.51 23.24 9.72C23.11 9.63 22.47 9.15 21.31 8.29C23.34 5.25 24.61 3.35 25.12 2.59C25.61 1.86 26.61 1.69 27.32 2.21ZM11.52 32.48C11.52 32.23 11.52 32.09 11.52 32.07C11.52 31.7 11.82 31.4 12.18 31.4C13.11 31.4 20.55 31.4 21.47 31.4C21.84 31.4 22.14 31.7 22.14 32.07C22.14 32.12 22.14 32.26 22.14 32.48C20.02 32.48 12.58 32.48 11.52 32.48ZM15.17 30.11L15.94 26.88L17.72 26.88L18.49 30.11L15.17 30.11ZM29.21 25.59C28.18 25.59 5.6 25.59 4.45 25.59C3.72 25.59 3.13 24.99 3.13 24.27C3.13 24.06 3.13 23.05 3.13 21.23C4.24 21.23 4.85 21.23 4.98 21.23C5.33 21.23 5.62 20.94 5.62 20.59C5.62 20.23 5.33 19.94 4.98 19.94C4.85 19.94 4.24 19.94 3.12 19.94C3.12 12.5 3.12 8.37 3.12 7.54C3.12 6.81 3.72 6.22 4.45 6.22C6.11 6.22 19.46 6.22 21.13 6.22C20.51 7.15 18.7 9.85 18.13 10.71C16.86 10.72 15.59 11.16 14.76 12.13C13.63 13.45 13.43 15.52 14.17 18.28C14.3 18.76 14.89 18.92 15.25 18.58C16.92 16.98 19.01 18.73 20.87 17.22C22.02 16.29 22.28 14.83 21.86 13.46C22.44 12.75 27.21 6.93 27.79 6.22C27.93 6.22 29.07 6.22 29.21 6.22C29.94 6.22 30.53 6.81 30.53 7.54C30.53 8.37 30.53 12.5 30.53 19.94C18.31 19.94 11.52 19.94 10.16 19.94C9.8 19.94 9.51 20.23 9.51 20.59C9.51 20.94 9.8 21.23 10.16 21.23C11.52 21.23 18.31 21.23 30.53 21.23C30.53 22.85 30.53 23.86 30.53 24.27C30.53 24.99 29.94 25.59 29.21 25.59Z" id="b18O4qUgM"></path><path d="M7.7 21.22C8.05 21.15 8.27 20.8 8.2 20.46C8.13 20.1 7.79 19.88 7.44 19.95C7.13 20.01 6.92 20.28 6.92 20.59C6.92 20.99 7.29 21.3 7.7 21.22Z" id="b55HqHhzkv"></path><path d="M7.7 21.22C8.05 21.15 8.27 20.8 8.2 20.46C8.13 20.1 7.79 19.88 7.44 19.95C7.13 20.01 6.92 20.28 6.92 20.59C6.92 20.99 7.29 21.3 7.7 21.22Z" id="coyToaDbk"></path></defs><g><g><g><use xlink:href="#a7HqMpszt" opacity="1" fill="#000000" fill-opacity="1"></use><g><use xlink:href="#a7HqMpszt" opacity="1" fill-opacity="0" stroke="#000000" stroke-width="1" stroke-opacity="0"></use></g></g><g><use xlink:href="#b18O4qUgM" opacity="1" fill="#000000" fill-opacity="0"></use><g><use xlink:href="#b18O4qUgM" opacity="1" fill-opacity="0" stroke="#000000" stroke-width="1" stroke-opacity="0"></use></g></g><g><use xlink:href="#b55HqHhzkv" opacity="1" fill="#000000" fill-opacity="1"></use><g><use xlink:href="#b55HqHhzkv" opacity="1" fill-opacity="0" stroke="#000000" stroke-width="1" stroke-opacity="0"></use></g></g><g><use xlink:href="#coyToaDbk" opacity="1" fill="#000000" fill-opacity="0"></use><g><use xlink:href="#coyToaDbk" opacity="1" fill-opacity="0" stroke="#000000" stroke-width="1" stroke-opacity="0"></use></g></g></g></g></svg>